<?xml version="1.0" encoding="utf-8"?>
<!-- Generator: Adobe Illustrator 19.0.0, SVG Export Plug-In . SVG Version: 6.00 Build 0)  -->
<svg version="1.1" id="Layer_1" focusable="false" xmlns="http://www.w3.org/2000/svg" xmlns:xlink="http://www.w3.org/1999/xlink" x="0px" y="0px" viewBox="-49 141 512 512" style="enable-background:new -49 141 512 512;" xml:space="preserve">
	<path fill="gray" d="M-739,459l35.2,78.5c7.1,18.3,21.7,29.9,37.6,29.9h233.6L-481,459H-739z M-329.8,430.1l-136.1-307
	c-7.3-17.7-21.6-28.8-37.2-28.8h-72.4l210.6,472.6l33.3-74.4C-329.9,489.1-314.2,461.1-329.8,430.1L-329.8,430.1z M-515.5,382.1
	L-610,170.9l-94.6,211.2H-515.5z" />
	<g>
		<g>
			<path fill="gray" d="M32.1,537c-6.1-15.3,2.5-27.9,19-27.9h198c16.5,0,35,12.6,41,27.9l22,55.7c6.1,15.3-2.5,27.9-19,27.9h-198
			c-16.5,0-35-12.6-41-27.9L32.1,537z" />
		</g>
		<path fill="gray" d="M262.2,164.1c-8-17.7-88-11.8-77.9,8c114.9,224.5,127.4,261.1,199,449.4c8.4,22.2,58-26,53.7-54" />
		<path fill="gray" d="M244.6,432.1c21.8-21.8-72.6-211.2-94.6-211.2S35.2,411.8,55.5,432.1C75.8,452.4,222.8,453.9,244.6,432.1z" />
	</g>
</svg>
